<?xml version="1.0" encoding="utf-8"?>
<!-- Generator: Adobe Illustrator 19.1.0, SVG Export Plug-In . SVG Version: 6.00 Build 0)  -->
<svg version="1.1" id="Layer_1" xmlns="http://www.w3.org/2000/svg" xmlns:xlink="http://www.w3.org/1999/xlink" x="0px" y="0px"
	 viewBox="0 0 242.5 94" style="enable-background:new 0 0 242.5 94;" xml:space="preserve">
<style type="text/css">
	.st0{display:none;fill:#1B3D6D;}
	.st1{fill:#FFFFFF;}
	.st2{fill:#003A70;}
	.st3{fill:none;stroke:#AC162C;stroke-miterlimit:10;}
	.st4{fill:none;stroke:#AC162C;stroke-width:2;stroke-miterlimit:10;}
</style>
<rect x="-11.5" y="-8.3" class="st0" width="265.5" height="112"/>
<polygon class="st1" points="85.7,4.6 82.2,4.6 3.5,4.6 0,4.6 0,8.2 0,86.8 0,90.3 3.5,90.3 82.2,90.3 85.7,90.3 85.7,86.8 
	85.7,8.2 "/>
<g>
	<path class="st2" d="M10.3,16.9v-1.6c0.6-0.1,1.2-0.2,1.5-0.3l5.4-0.3c4.5-0.4,9.5-0.7,15-0.9c2.2-0.1,5.7-0.1,10.5-0.1
		c6.5,0,11.2,0.4,14.2,1.3c4.4,1.3,7.7,3.2,9.8,5.8c2.2,2.6,3.2,5.4,3.2,8.6c0,5.1-4,9.4-12.1,12.9l-0.3,0.4c4.1,1,7.5,2.4,10.1,4.2
		c2.6,1.8,4.7,4,6.1,6.6c1,1.9,1.5,4.4,1.5,7.5c0,5.2-2.6,9.7-7.7,13.8c-5.2,4-12.3,6-21.4,6h-8.5l-8.6,0.3
		c-7.6,0.1-12.1,0.1-13.4,0.1c-1.3,0-2.7-0.1-3.9-0.2v-0.6c0-0.4,0.1-0.7,0.3-0.9c0.2-0.2,0.7-0.4,1.3-0.5c4.8-0.9,7.5-1.5,8.1-1.8
		c0.6-0.3,1.1-0.9,1.3-1.6c0.5-1.4,0.7-4.9,0.7-10.7c0-0.5,0-1.2-0.1-2c-0.1-2.3-0.1-3.6-0.1-4v-5.4c0-9.1-0.1-17.1-0.3-23.9
		l-0.1-10.4L22.8,18c-3.2-0.4-6.1-0.7-8.6-0.8C12.6,17.2,11.3,17.1,10.3,16.9 M33,43.1c1.9,0.3,3.9,0.5,6,0.5
		c8.3,0,13.9-1.6,16.8-4.9c2.9-3.3,4.4-6.6,4.4-9.8c0-1.5-0.3-2.9-0.8-4.4c-0.5-1.5-1.4-2.9-2.8-4.1c-1.3-1.2-3-2.1-4.9-2.7
		c-3.3-1-6.7-1.5-10.2-1.5c-3.2,0-6.3,0.3-9.1,1c0,0.7-0.1,1.3-0.1,1.6c0,0.3,0,1.3,0.1,3c0,1,0.1,2.1,0.1,3.1l-0.2,6.3l0.1,3.7
		l0.4,7.3L33,43.1z M46.5,78.4c3.8-0.2,7-1,9.5-2.2c1.2-0.6,2.6-1.5,4.2-3c1.6-1.4,2.9-3.2,3.8-5.2c0.9-2,1.3-3.9,1.3-5.8
		c0-1.4-0.3-3.2-0.9-5.2c-0.6-2.1-1.7-3.9-3.2-5.5c-1.5-1.6-3.8-2.9-6.7-3.9c-3-1-6.3-1.5-9.9-1.5c-7,0-10.8,0.1-11.7,0.4
		c0,0.8-0.1,1.4-0.1,1.8l0.1,1.9L32.8,54v4.4c0.1,8.1,0.3,12.9,0.6,14.4c0.3,1.5,1.3,2.8,3.1,3.8C38.3,77.8,41.6,78.3,46.5,78.4"/>
	<path class="st3" d="M10.3,16.9v-1.6c0.6-0.1,1.2-0.2,1.5-0.3l5.4-0.3c4.5-0.4,9.5-0.7,15-0.9c2.2-0.1,5.7-0.1,10.5-0.1
		c6.5,0,11.2,0.4,14.2,1.3c4.4,1.3,7.7,3.2,9.8,5.8c2.2,2.6,3.2,5.4,3.2,8.6c0,5.1-4,9.4-12.1,12.9l-0.3,0.4c4.1,1,7.5,2.4,10.1,4.2
		c2.6,1.8,4.7,4,6.1,6.6c1,1.9,1.5,4.4,1.5,7.5c0,5.2-2.6,9.7-7.7,13.8c-5.2,4-12.3,6-21.4,6h-8.5l-8.6,0.3
		c-7.6,0.1-12.1,0.1-13.4,0.1c-1.3,0-2.7-0.1-3.9-0.2v-0.6c0-0.4,0.1-0.7,0.3-0.9c0.2-0.2,0.7-0.4,1.3-0.5c4.8-0.9,7.5-1.5,8.1-1.8
		c0.6-0.3,1.1-0.9,1.3-1.6c0.5-1.4,0.7-4.9,0.7-10.7c0-0.5,0-1.2-0.1-2c-0.1-2.3-0.1-3.6-0.1-4v-5.4c0-9.1-0.1-17.1-0.3-23.9
		l-0.1-10.4L22.8,18c-3.2-0.4-6.1-0.7-8.6-0.8C12.6,17.2,11.3,17.1,10.3,16.9z M33,43.1c1.9,0.3,3.9,0.5,6,0.5
		c8.3,0,13.9-1.6,16.8-4.9c2.9-3.3,4.4-6.6,4.4-9.8c0-1.5-0.3-2.9-0.8-4.4c-0.5-1.5-1.4-2.9-2.8-4.1c-1.3-1.2-3-2.1-4.9-2.7
		c-3.3-1-6.7-1.5-10.2-1.5c-3.2,0-6.3,0.3-9.1,1c0,0.7-0.1,1.3-0.1,1.6c0,0.3,0,1.3,0.1,3c0,1,0.1,2.1,0.1,3.1l-0.2,6.3l0.1,3.7
		l0.4,7.3L33,43.1z M46.5,78.4c3.8-0.2,7-1,9.5-2.2c1.2-0.6,2.6-1.5,4.2-3c1.6-1.4,2.9-3.2,3.8-5.2c0.9-2,1.3-3.9,1.3-5.8
		c0-1.4-0.3-3.2-0.9-5.2c-0.6-2.1-1.7-3.9-3.2-5.5c-1.5-1.6-3.8-2.9-6.7-3.9c-3-1-6.3-1.5-9.9-1.5c-7,0-10.8,0.1-11.7,0.4
		c0,0.8-0.1,1.4-0.1,1.8l0.1,1.9L32.8,54v4.4c0.1,8.1,0.3,12.9,0.6,14.4c0.3,1.5,1.3,2.8,3.1,3.8C38.3,77.8,41.6,78.3,46.5,78.4z"/>
	<g>
		<path class="st1" d="M111.4,44.3c1.4-0.4,1.6-1.2,1.6-2.5l0.1-4c0.1-3.2-1.1-7.6-7-7.6c-2.7,0-6,1.2-6.2,3.9c-0.1,1.4-0.2,2.4-1,3
			c-1.4,1-4,1.7-5.5,1.7c-0.9,0-1.3-0.4-1.3-1.2c0-4.5,10.9-10.7,17.9-10.7c6.9,0,10.3,3.7,10,10.2l-0.6,15.2
			c-0.2,4,0.7,7.6,4.4,7.6c1,0,1.8-0.3,2.4-0.5c0.5-0.3,1-0.6,1.3-0.6c0.4,0,0.7,0.5,0.7,1.1c0,0.4-3.4,3.8-8.1,3.8
			c-2.3,0-4.6-0.8-6.3-2.7c-0.4-0.5-1-1.2-1.5-1.2c-0.7,0-1.8,0.8-3.8,1.7c-2.1,1-4.2,2.2-6.9,2.2c-2.8,0-5.1-0.7-6.7-2
			c-1.8-1.5-3-3.7-3-6.1c0-3.4,1.8-5.4,8-7.4L111.4,44.3z M105.4,59.7c1.9,0,4.9-1.3,5.9-2.2c1.2-1,1.2-2.3,1.3-4.1l0.2-5.1
			c0-1-0.4-1.1-1-1.1s-2.2,0.3-3.9,0.9c-5.7,1.7-8.5,3.1-8.5,6.5C99.4,55.9,100.5,59.7,105.4,59.7z"/>
		<path class="st1" d="M135.9,13.2c0-5.1-0.1-5.7-3-7.2l-1-0.5c-0.5-0.3-0.5-1.5,0-1.7c2.4-0.7,6.9-2,10.4-3.7c0.4,0,0.8,0.2,1,0.5
			c-0.1,2.6-0.3,7-0.3,10.8v29.9c0,1.1,0.1,1.3,1.7,1.3c2.1,0,3.9-1,6.5-3.4l3.9-3.8c2.7-2.6,3.4-3.6,3.4-4s-0.5-0.7-2.1-0.9
			l-2.3-0.3c-0.9-0.3-0.9-1.9,0-2.2h2.2c4.2,0,9.9-0.2,15.3-0.7c0.7,0.3,0.8,1.7,0.2,2.2l-3.1,0.5c-1.9,0.3-3.6,1.2-6.1,3.1
			c-3.8,2.7-7,5.8-8.8,7.3c-1.2,1-1.3,1.4-0.7,2.1c1.6,2,3.2,3.7,6.4,7c3.8,3.8,7.1,7.2,9,8.9c1.3,1.1,3.3,1.7,5,1.9l1.3,0.2
			c0.7,0.4,0.6,1.9-0.2,2.2c-2.8-0.2-6.1-0.3-9.1-0.3c-3.8,0-7.2,0.1-10,0.3c-0.8-0.3-0.9-1.8-0.2-2.2l1.7-0.3
			c1.4-0.2,2.4-0.3,2.4-0.9s-0.4-1.1-1.6-2.4l-10.3-10.8c-0.9-0.9-1.9-1.2-3-1.2c-1.7,0-1.8,0.3-1.8,3v4.8c0,6.3,0.2,7.2,3.7,7.6
			l2.3,0.3c0.7,0.4,0.5,1.9-0.2,2.2c-3.2-0.2-6-0.3-9.3-0.3c-3.5,0-6.4,0.1-9.2,0.3c-0.7-0.3-0.9-1.7-0.1-2.2l2.1-0.3
			c3.6-0.4,3.7-1.3,3.7-7.6V13.2z"/>
		<path class="st1" d="M185.1,40.1c-2.5,0-2.6,0.2-2.6,2.4c0,8.8,5.7,16.3,16,16.3c3.2,0,5.9-0.9,8.9-4.3c1-0.3,1.6,0.3,1.7,1
			c-3.2,5.9-10.1,8.1-15.1,8.1c-6.3,0-11.2-2.4-14-5.8c-2.9-3.4-4-7.5-4-11.3c0-10.7,7.8-19.7,19.3-19.7c8.3,0,13.7,5.1,13.7,10.4
			c0,1.2-0.2,1.9-0.4,2.3c-0.3,0.5-1.6,0.6-5.7,0.6H185.1z M191.1,37.4c7.1,0,9.2-0.3,10-0.9c0.3-0.2,0.6-0.5,0.6-1.7
			c0-2.4-1.8-5.5-7.4-5.5c-5.7,0-10.6,4.7-10.7,7.6c0,0.2,0,0.4,0.7,0.4H191.1z"/>
		<path class="st1" d="M220.1,37.4c0-3.4,0-3.8-2.6-5.4l-0.9-0.5c-0.4-0.3-0.4-1.3,0.1-1.6c2.2-0.7,7.3-3,9.7-4.3
			c0.5,0.1,0.8,0.3,0.8,0.6v5.1c0,0.4,0.1,0.7,0.3,0.8c3.4-2.5,7-5.2,10.6-5.2c2.4,0,4.3,1.4,4.3,3.5c0,2.9-2.6,4-4.1,4
			c-1,0-1.4-0.3-2.1-0.6c-1.4-0.9-2.9-1.4-4.2-1.4c-1.5,0-2.7,0.8-3.5,1.7c-1,1.2-1.3,3.8-1.3,6.7v11.9c0,6.3,0.2,7.3,3.8,7.6
			l3.5,0.3c0.7,0.4,0.5,1.9-0.2,2.2c-4.5-0.2-7.3-0.3-10.7-0.3c-3.5,0-6.4,0.1-8.9,0.3c-0.7-0.3-0.9-1.7-0.2-2.2l1.8-0.3
			c3.6-0.5,3.7-1.3,3.7-7.6V37.4z"/>
	</g>
	<line class="st4" x1="91.2" y1="70.6" x2="242" y2="70.6"/>
</g>
<g>
	<path class="st1" d="M95.8,81.3v9.1h-1.8v-9.1h-2.7v-1.5h7.1v1.5H95.8z"/>
	<path class="st1" d="M99.3,78.8h1.7v5.4c0.6-0.5,1.3-0.7,2-0.7c0.8,0,1.5,0.2,2,0.7c0.4,0.4,0.6,1.1,0.6,2v4.1h-1.7v-3.9
		c0-0.5-0.1-0.9-0.3-1.2c-0.2-0.2-0.5-0.4-1-0.4c-0.6,0-1,0.2-1.2,0.5c-0.2,0.3-0.4,0.9-0.4,1.7v3.2h-1.7V78.8z"/>
	<path class="st1" d="M114.1,87.3h-5.2c0,0.5,0.2,1,0.6,1.3c0.3,0.3,0.8,0.5,1.3,0.5c0.4,0,0.8-0.1,1-0.3c0.3-0.2,0.6-0.5,0.9-1
		l1.4,0.7c-0.2,0.3-0.5,0.6-0.7,0.9c-0.2,0.2-0.5,0.4-0.8,0.6c-0.3,0.2-0.6,0.3-0.9,0.3c-0.3,0.1-0.7,0.1-1.1,0.1
		c-1.1,0-2-0.3-2.6-1c-0.7-0.6-1-1.5-1-2.6c0-1.1,0.3-1.9,1-2.6c0.6-0.6,1.5-1,2.6-1c1.1,0,1.9,0.3,2.6,0.9c0.6,0.6,0.9,1.5,0.9,2.6
		L114.1,87.3z M112.3,86.1c-0.2-0.8-0.8-1.2-1.7-1.2c-0.2,0-0.4,0-0.6,0.1c-0.2,0.1-0.3,0.1-0.5,0.2c-0.1,0.1-0.3,0.2-0.4,0.4
		c-0.1,0.2-0.2,0.3-0.2,0.5H112.3z"/>
	<path class="st1" d="M122,86v4.3h-1.8V79.8h2c1,0,1.7,0.1,2.2,0.2c0.5,0.1,0.9,0.4,1.3,0.7c0.7,0.6,1,1.3,1,2.2
		c0,1-0.4,1.7-1.1,2.3S124,86,122.8,86H122z M122,84.6h0.7c1.6,0,2.4-0.6,2.4-1.7c0-1.1-0.8-1.6-2.5-1.6H122V84.6z"/>
	<path class="st1" d="M127.8,83.7h1.7v0.6c0.3-0.3,0.6-0.5,0.8-0.6c0.2-0.1,0.5-0.2,0.9-0.2c0.4,0,0.9,0.1,1.4,0.4l-0.8,1.4
		c-0.3-0.2-0.6-0.3-0.9-0.3c-0.9,0-1.4,0.6-1.4,1.9v3.5h-1.7V83.7z"/>
	<path class="st1" d="M132.7,86.9c0-1,0.4-1.8,1.1-2.5c0.8-0.7,1.7-1,2.8-1c1.1,0,2,0.3,2.8,1c0.8,0.7,1.1,1.5,1.1,2.5
		c0,1-0.4,1.8-1.1,2.5c-0.8,0.7-1.7,1-2.8,1c-1.1,0-2-0.3-2.8-1C133.1,88.8,132.7,88,132.7,86.9z M134.5,87c0,0.7,0.2,1.2,0.6,1.6
		c0.4,0.4,0.9,0.6,1.6,0.6c0.7,0,1.2-0.2,1.6-0.6c0.4-0.4,0.6-0.9,0.6-1.6s-0.2-1.2-0.6-1.6c-0.4-0.4-0.9-0.6-1.6-0.6
		c-0.6,0-1.2,0.2-1.6,0.6S134.5,86.3,134.5,87z"/>
	<path class="st1" d="M149,90.2c0,0.3,0,0.6,0,0.8c0,0.2-0.1,0.4-0.1,0.6c-0.1,0.5-0.4,0.9-0.7,1.3c-0.7,0.7-1.6,1-2.7,1
		c-1,0-1.8-0.2-2.4-0.7c-0.7-0.5-1-1.2-1.1-2h1.7c0.1,0.3,0.2,0.6,0.3,0.8c0.4,0.4,0.9,0.6,1.5,0.6c1.2,0,1.9-0.7,1.9-2.1v-0.9
		c-0.7,0.6-1.4,0.9-2.3,0.9c-1,0-1.8-0.3-2.5-1c-0.6-0.7-1-1.5-1-2.5c0-1,0.3-1.8,0.9-2.5c0.6-0.7,1.5-1.1,2.5-1.1
		c0.9,0,1.7,0.3,2.3,0.9v-0.8h1.7V90.2z M147.4,87c0-0.6-0.2-1.2-0.6-1.5c-0.4-0.4-0.9-0.6-1.5-0.6c-0.6,0-1.1,0.2-1.5,0.6
		c-0.3,0.4-0.5,0.9-0.5,1.5c0,0.6,0.2,1.1,0.5,1.5c0.4,0.4,0.9,0.6,1.5,0.6c0.6,0,1.2-0.2,1.5-0.6C147.2,88.1,147.4,87.6,147.4,87z"
		/>
	<path class="st1" d="M150.8,83.7h1.7v0.6c0.3-0.3,0.6-0.5,0.8-0.6c0.2-0.1,0.5-0.2,0.9-0.2c0.4,0,0.9,0.1,1.4,0.4l-0.8,1.4
		c-0.3-0.2-0.6-0.3-0.9-0.3c-0.9,0-1.4,0.6-1.4,1.9v3.5h-1.7V83.7z"/>
	<path class="st1" d="M162.8,87.3h-5.2c0,0.5,0.2,1,0.6,1.3c0.3,0.3,0.8,0.5,1.3,0.5c0.4,0,0.8-0.1,1-0.3c0.3-0.2,0.6-0.5,0.9-1
		l1.4,0.7c-0.2,0.3-0.5,0.6-0.7,0.9c-0.2,0.2-0.5,0.4-0.8,0.6c-0.3,0.2-0.6,0.3-0.9,0.3c-0.3,0.1-0.7,0.1-1.1,0.1
		c-1.1,0-2-0.3-2.6-1c-0.7-0.6-1-1.5-1-2.6c0-1.1,0.3-1.9,1-2.6c0.6-0.6,1.5-1,2.6-1c1.1,0,1.9,0.3,2.6,0.9c0.6,0.6,0.9,1.5,0.9,2.6
		L162.8,87.3z M161,86.1c-0.2-0.8-0.8-1.2-1.7-1.2c-0.2,0-0.4,0-0.6,0.1c-0.2,0.1-0.3,0.1-0.5,0.2c-0.1,0.1-0.3,0.2-0.4,0.4
		s-0.2,0.3-0.2,0.5H161z"/>
	<path class="st1" d="M168.5,84.8l-1.4,0.7c-0.2-0.4-0.5-0.6-0.8-0.6c-0.2,0-0.3,0-0.4,0.1c-0.1,0.1-0.2,0.2-0.2,0.4
		c0,0.3,0.3,0.5,1,0.8c0.9,0.4,1.5,0.7,1.8,1c0.3,0.3,0.5,0.7,0.5,1.2c0,0.6-0.3,1.2-0.8,1.6c-0.5,0.4-1.1,0.6-1.8,0.6
		c-1.2,0-2.1-0.5-2.6-1.6l1.4-0.6c0.2,0.3,0.4,0.5,0.5,0.6c0.2,0.2,0.5,0.3,0.7,0.3c0.6,0,0.9-0.2,0.9-0.7c0-0.3-0.2-0.5-0.7-0.8
		c-0.2-0.1-0.3-0.2-0.5-0.2c-0.2-0.1-0.3-0.1-0.5-0.2c-0.5-0.2-0.8-0.4-1-0.7c-0.3-0.3-0.4-0.6-0.4-1.1c0-0.6,0.2-1.1,0.7-1.4
		c0.4-0.4,1-0.6,1.6-0.6C167.3,83.5,168,83.9,168.5,84.8z"/>
	<path class="st1" d="M174.4,84.8l-1.4,0.7c-0.2-0.4-0.5-0.6-0.8-0.6c-0.2,0-0.3,0-0.4,0.1c-0.1,0.1-0.2,0.2-0.2,0.4
		c0,0.3,0.3,0.5,1,0.8c0.9,0.4,1.5,0.7,1.8,1c0.3,0.3,0.5,0.7,0.5,1.2c0,0.6-0.3,1.2-0.8,1.6c-0.5,0.4-1.1,0.6-1.8,0.6
		c-1.2,0-2.1-0.5-2.6-1.6l1.4-0.6c0.2,0.3,0.4,0.5,0.5,0.6c0.2,0.2,0.5,0.3,0.7,0.3c0.6,0,0.9-0.2,0.9-0.7c0-0.3-0.2-0.5-0.7-0.8
		c-0.2-0.1-0.3-0.2-0.5-0.2c-0.2-0.1-0.3-0.1-0.5-0.2c-0.5-0.2-0.8-0.4-1-0.7c-0.3-0.3-0.4-0.6-0.4-1.1c0-0.6,0.2-1.1,0.7-1.4
		c0.4-0.4,1-0.6,1.6-0.6C173.2,83.5,173.9,83.9,174.4,84.8z"/>
	<path class="st1" d="M175.7,80.9c0-0.3,0.1-0.5,0.3-0.7s0.5-0.3,0.8-0.3c0.3,0,0.6,0.1,0.8,0.3c0.2,0.2,0.3,0.4,0.3,0.7
		s-0.1,0.5-0.3,0.7c-0.2,0.2-0.5,0.3-0.8,0.3s-0.6-0.1-0.8-0.3S175.7,81.2,175.7,80.9z M177.7,83.7v6.7H176v-6.7H177.7z"/>
	<path class="st1" d="M180.4,83.7l1.9,3.7l1.9-3.7h1.9l-3.8,7.1l-3.8-7.1H180.4z"/>
	<path class="st1" d="M193.2,87.3H188c0,0.5,0.2,1,0.6,1.3c0.3,0.3,0.8,0.5,1.3,0.5c0.4,0,0.8-0.1,1-0.3c0.3-0.2,0.6-0.5,0.9-1
		l1.4,0.7c-0.2,0.3-0.5,0.6-0.7,0.9c-0.2,0.2-0.5,0.4-0.8,0.6c-0.3,0.2-0.6,0.3-0.9,0.3c-0.3,0.1-0.7,0.1-1.1,0.1
		c-1.1,0-2-0.3-2.6-1c-0.7-0.6-1-1.5-1-2.6c0-1.1,0.3-1.9,1-2.6c0.6-0.6,1.5-1,2.6-1c1.1,0,1.9,0.3,2.6,0.9c0.6,0.6,0.9,1.5,0.9,2.6
		L193.2,87.3z M191.5,86.1c-0.2-0.8-0.8-1.2-1.7-1.2c-0.2,0-0.4,0-0.6,0.1c-0.2,0.1-0.3,0.1-0.5,0.2c-0.1,0.1-0.3,0.2-0.4,0.4
		s-0.2,0.3-0.2,0.5H191.5z"/>
	<path class="st1" d="M205.9,81.3l-1.4,0.8c-0.3-0.4-0.5-0.7-0.8-0.8c-0.3-0.1-0.6-0.2-1-0.2c-0.5,0-0.9,0.1-1.2,0.4
		c-0.3,0.2-0.5,0.6-0.5,0.9c0,0.5,0.4,0.9,1.3,1.2l1.2,0.4c0.9,0.3,1.6,0.8,2.1,1.3c0.4,0.5,0.7,1.1,0.7,1.8c0,1-0.4,1.8-1.1,2.4
		c-0.7,0.6-1.6,1-2.7,1c-1,0-1.8-0.3-2.5-0.8c-0.6-0.5-1.1-1.3-1.2-2.3l1.8-0.4c0.1,0.6,0.2,1,0.4,1.3c0.4,0.5,0.9,0.7,1.6,0.7
		c0.5,0,1-0.2,1.4-0.5c0.4-0.3,0.5-0.8,0.5-1.3c0-0.2,0-0.4-0.1-0.6s-0.2-0.3-0.3-0.5c-0.1-0.1-0.3-0.3-0.5-0.4
		c-0.2-0.1-0.5-0.2-0.8-0.4l-1.1-0.4c-1.6-0.6-2.4-1.5-2.4-2.7c0-0.8,0.3-1.5,1-2c0.7-0.5,1.5-0.8,2.5-0.8
		C204.1,79.6,205.2,80.1,205.9,81.3z"/>
	<path class="st1" d="M213.4,83.9v2c-0.4-0.4-0.7-0.7-1-0.9c-0.3-0.2-0.7-0.2-1.1-0.2c-0.6,0-1.2,0.2-1.6,0.6
		c-0.4,0.4-0.6,0.9-0.6,1.5c0,0.6,0.2,1.1,0.6,1.5c0.4,0.4,0.9,0.6,1.6,0.6c0.4,0,0.8-0.1,1.1-0.2c0.3-0.2,0.7-0.5,1.1-0.9v2
		c-0.7,0.3-1.4,0.5-2.1,0.5c-1.1,0-2.1-0.3-2.8-1c-0.8-0.7-1.1-1.5-1.1-2.5s0.4-1.8,1.2-2.5c0.8-0.7,1.7-1,2.8-1
		C212,83.5,212.7,83.6,213.4,83.9z"/>
	<path class="st1" d="M215,78.8h1.7v5.4c0.6-0.5,1.3-0.7,2-0.7c0.8,0,1.5,0.2,2,0.7c0.4,0.4,0.6,1.1,0.6,2v4.1h-1.7v-3.9
		c0-0.5-0.1-0.9-0.3-1.2c-0.2-0.2-0.5-0.4-1-0.4c-0.6,0-1,0.2-1.2,0.5c-0.2,0.3-0.4,0.9-0.4,1.7v3.2H215V78.8z"/>
	<path class="st1" d="M222.7,86.9c0-1,0.4-1.8,1.1-2.5c0.8-0.7,1.7-1,2.8-1c1.1,0,2,0.3,2.8,1c0.8,0.7,1.1,1.5,1.1,2.5
		c0,1-0.4,1.8-1.1,2.5c-0.8,0.7-1.7,1-2.8,1c-1.1,0-2-0.3-2.8-1C223.1,88.8,222.7,88,222.7,86.9z M224.4,87c0,0.7,0.2,1.2,0.6,1.6
		c0.4,0.4,0.9,0.6,1.6,0.6c0.7,0,1.2-0.2,1.6-0.6c0.4-0.4,0.6-0.9,0.6-1.6s-0.2-1.2-0.6-1.6c-0.4-0.4-0.9-0.6-1.6-0.6
		c-0.6,0-1.2,0.2-1.6,0.6S224.4,86.3,224.4,87z"/>
	<path class="st1" d="M231.6,86.9c0-1,0.4-1.8,1.1-2.5c0.8-0.7,1.7-1,2.8-1c1.1,0,2,0.3,2.8,1c0.8,0.7,1.1,1.5,1.1,2.5
		c0,1-0.4,1.8-1.1,2.5c-0.8,0.7-1.7,1-2.8,1c-1.1,0-2-0.3-2.8-1C232,88.8,231.6,88,231.6,86.9z M233.3,87c0,0.7,0.2,1.2,0.6,1.6
		c0.4,0.4,0.9,0.6,1.6,0.6c0.7,0,1.2-0.2,1.6-0.6c0.4-0.4,0.6-0.9,0.6-1.6s-0.2-1.2-0.6-1.6c-0.4-0.4-0.9-0.6-1.6-0.6
		c-0.6,0-1.2,0.2-1.6,0.6S233.3,86.3,233.3,87z"/>
	<path class="st1" d="M242.5,78.8v11.5h-1.7V78.8H242.5z"/>
</g>
</svg>
