<svg id="Layer_1" xmlns="http://www.w3.org/2000/svg" viewBox="0 0 242.5 94"><style>.st0{display:none;fill:#1B3D6D;} .st1{fill:#FFFFFF;} .st2{fill:#003A70;} .st3{fill:none;stroke:#AC162C;stroke-miterlimit:10;} .st4{fill:none;stroke:#AC162C;stroke-width:2;stroke-miterlimit:10;}</style><path class="st0" d="M-11.5-8.3H254v112H-11.5z"/><path class="st1" d="M85.7 4.6H0V90.3h85.7V8.2z"/><path class="st2" d="M10.3 16.9v-1.6c.6-.1 1.2-.2 1.5-.3l5.4-.3c4.5-.4 9.5-.7 15-.9 2.2-.1 5.7-.1 10.5-.1 6.5 0 11.2.4 14.2 1.3 4.4 1.3 7.7 3.2 9.8 5.8 2.2 2.6 3.2 5.4 3.2 8.6 0 5.1-4 9.4-12.1 12.9l-.3.4c4.1 1 7.5 2.4 10.1 4.2 2.6 1.8 4.7 4 6.1 6.6 1 1.9 1.5 4.4 1.5 7.5 0 5.2-2.6 9.7-7.7 13.8-5.2 4-12.3 6-21.4 6h-8.5l-8.6.3c-7.6.1-12.1.1-13.4.1-1.3 0-2.7-.1-3.9-.2v-.6c0-.4.1-.7.3-.9.2-.2.7-.4 1.3-.5 4.8-.9 7.5-1.5 8.1-1.8.6-.3 1.1-.9 1.3-1.6.5-1.4.7-4.9.7-10.7 0-.5 0-1.2-.1-2-.1-2.3-.1-3.6-.1-4v-5.4c0-9.1-.1-17.1-.3-23.9l-.1-10.4V18c-3.2-.4-6.1-.7-8.6-.8-1.6 0-2.9-.1-3.9-.3M33 43.1c1.9.3 3.9.5 6 .5 8.3 0 13.9-1.6 16.8-4.9 2.9-3.3 4.4-6.6 4.4-9.8 0-1.5-.3-2.9-.8-4.4-.5-1.5-1.4-2.9-2.8-4.1-1.3-1.2-3-2.1-4.9-2.7-3.3-1-6.7-1.5-10.2-1.5-3.2 0-6.3.3-9.1 1 0 .7-.1 1.3-.1 1.6 0 .3 0 1.3.1 3 0 1 .1 2.1.1 3.1l-.2 6.3.1 3.7.4 7.3.2.9zm13.5 35.3c3.8-.2 7-1 9.5-2.2 1.2-.6 2.6-1.5 4.2-3 1.6-1.4 2.9-3.2 3.8-5.2.9-2 1.3-3.9 1.3-5.8 0-1.4-.3-3.2-.9-5.2-.6-2.1-1.7-3.9-3.2-5.5-1.5-1.6-3.8-2.9-6.7-3.9-3-1-6.3-1.5-9.9-1.5-7 0-10.8.1-11.7.4 0 .8-.1 1.4-.1 1.8l.1 1.9-.1 3.8v4.4c.1 8.1.3 12.9.6 14.4s1.3 2.8 3.1 3.8c1.8 1.2 5.1 1.7 10 1.8"/><path class="st3" d="M10.3 16.9v-1.6c.6-.1 1.2-.2 1.5-.3l5.4-.3c4.5-.4 9.5-.7 15-.9 2.2-.1 5.7-.1 10.5-.1 6.5 0 11.2.4 14.2 1.3 4.4 1.3 7.7 3.2 9.8 5.8 2.2 2.6 3.2 5.4 3.2 8.6 0 5.1-4 9.4-12.1 12.9l-.3.4c4.1 1 7.5 2.4 10.1 4.2 2.6 1.8 4.7 4 6.1 6.6 1 1.9 1.5 4.4 1.5 7.5 0 5.2-2.6 9.7-7.7 13.8-5.2 4-12.3 6-21.4 6h-8.5l-8.6.3c-7.6.1-12.1.1-13.4.1-1.3 0-2.7-.1-3.9-.2v-.6c0-.4.1-.7.3-.9.2-.2.7-.4 1.3-.5 4.8-.9 7.5-1.5 8.1-1.8.6-.3 1.1-.9 1.3-1.6.5-1.4.7-4.9.7-10.7 0-.5 0-1.2-.1-2-.1-2.3-.1-3.6-.1-4v-5.4c0-9.1-.1-17.1-.3-23.9l-.1-10.4V18c-3.2-.4-6.1-.7-8.6-.8-1.6 0-2.9-.1-3.9-.3zM33 43.1c1.9.3 3.9.5 6 .5 8.3 0 13.9-1.6 16.8-4.9 2.9-3.3 4.4-6.6 4.4-9.8 0-1.5-.3-2.9-.8-4.4-.5-1.5-1.4-2.9-2.8-4.1-1.3-1.2-3-2.1-4.9-2.7-3.3-1-6.7-1.5-10.2-1.5-3.2 0-6.3.3-9.1 1 0 .7-.1 1.3-.1 1.6 0 .3 0 1.3.1 3 0 1 .1 2.1.1 3.1l-.2 6.3.1 3.7.4 7.3.2.9zm13.5 35.3c3.8-.2 7-1 9.5-2.2 1.2-.6 2.6-1.5 4.2-3 1.6-1.4 2.9-3.2 3.8-5.2.9-2 1.3-3.9 1.3-5.8 0-1.4-.3-3.2-.9-5.2-.6-2.1-1.7-3.9-3.2-5.5-1.5-1.6-3.8-2.9-6.7-3.9-3-1-6.3-1.5-9.9-1.5-7 0-10.8.1-11.7.4 0 .8-.1 1.4-.1 1.8l.1 1.9-.1 3.8v4.4c.1 8.1.3 12.9.6 14.4s1.3 2.8 3.1 3.8c1.8 1.2 5.1 1.7 10 1.8z"/><path class="st1" d="M111.4 44.3c1.4-.4 1.6-1.2 1.6-2.5l.1-4c.1-3.2-1.1-7.6-7-7.6-2.7 0-6 1.2-6.2 3.9-.1 1.4-.2 2.4-1 3-1.4 1-4 1.7-5.5 1.7-.9 0-1.3-.4-1.3-1.2 0-4.5 10.9-10.7 17.9-10.7 6.9 0 10.3 3.7 10 10.2l-.6 15.2c-.2 4 .7 7.6 4.4 7.6 1 0 1.8-.3 2.4-.5.5-.3 1-.6 1.3-.6.4 0 .7.5.7 1.1 0 .4-3.4 3.8-8.1 3.8-2.3 0-4.6-.8-6.3-2.7-.4-.5-1-1.2-1.5-1.2-.7 0-1.8.8-3.8 1.7-2.1 1-4.2 2.2-6.9 2.2-2.8 0-5.1-.7-6.7-2-1.8-1.5-3-3.7-3-6.1 0-3.4 1.8-5.4 8-7.4l11.5-3.9zm-6 15.4c1.9 0 4.9-1.3 5.9-2.2 1.2-1 1.2-2.3 1.3-4.1l.2-5.1c0-1-.4-1.1-1-1.1s-2.2.3-3.9.9c-5.7 1.7-8.5 3.1-8.5 6.5 0 1.3 1.1 5.1 6 5.1zM135.9 13.2c0-5.1-.1-5.7-3-7.2l-1-.5c-.5-.3-.5-1.5 0-1.7 2.4-.7 6.9-2 10.4-3.7.4 0 .8.2 1 .5-.1 2.6-.3 7-.3 10.8v29.9c0 1.1.1 1.3 1.7 1.3 2.1 0 3.9-1 6.5-3.4l3.9-3.8c2.7-2.6 3.4-3.6 3.4-4s-.5-.7-2.1-.9l-2.3-.3c-.9-.3-.9-1.9 0-2.2h2.2c4.2 0 9.9-.2 15.3-.7.7.3.8 1.7.2 2.2l-3.1.5c-1.9.3-3.6 1.2-6.1 3.1-3.8 2.7-7 5.8-8.8 7.3-1.2 1-1.3 1.4-.7 2.1 1.6 2 3.2 3.7 6.4 7 3.8 3.8 7.1 7.2 9 8.9 1.3 1.1 3.3 1.7 5 1.9l1.3.2c.7.4.6 1.9-.2 2.2-2.8-.2-6.1-.3-9.1-.3-3.8 0-7.2.1-10 .3-.8-.3-.9-1.8-.2-2.2l1.7-.3c1.4-.2 2.4-.3 2.4-.9s-.4-1.1-1.6-2.4l-10.3-10.8c-.9-.9-1.9-1.2-3-1.2-1.7 0-1.8.3-1.8 3v4.8c0 6.3.2 7.2 3.7 7.6l2.3.3c.7.4.5 1.9-.2 2.2-3.2-.2-6-.3-9.3-.3-3.5 0-6.4.1-9.2.3-.7-.3-.9-1.7-.1-2.2l2.1-.3c3.6-.4 3.7-1.3 3.7-7.6V13.2zM185.1 40.1c-2.5 0-2.6.2-2.6 2.4 0 8.8 5.7 16.3 16 16.3 3.2 0 5.9-.9 8.9-4.3 1-.3 1.6.3 1.7 1-3.2 5.9-10.1 8.1-15.1 8.1-6.3 0-11.2-2.4-14-5.8-2.9-3.4-4-7.5-4-11.3 0-10.7 7.8-19.7 19.3-19.7 8.3 0 13.7 5.1 13.7 10.4 0 1.2-.2 1.9-.4 2.3-.3.5-1.6.6-5.7.6h-17.8zm6-2.7c7.1 0 9.2-.3 10-.9.3-.2.6-.5.6-1.7 0-2.4-1.8-5.5-7.4-5.5-5.7 0-10.6 4.7-10.7 7.6 0 .2 0 .4.7.4h6.8zM220.1 37.4c0-3.4 0-3.8-2.6-5.4l-.9-.5c-.4-.3-.4-1.3.1-1.6 2.2-.7 7.3-3 9.7-4.3.5.1.8.3.8.6v5.1c0 .4.1.7.3.8 3.4-2.5 7-5.2 10.6-5.2 2.4 0 4.3 1.4 4.3 3.5 0 2.9-2.6 4-4.1 4-1 0-1.4-.3-2.1-.6-1.4-.9-2.9-1.4-4.2-1.4-1.5 0-2.7.8-3.5 1.7-1 1.2-1.3 3.8-1.3 6.7v11.9c0 6.3.2 7.3 3.8 7.6l3.5.3c.7.4.5 1.9-.2 2.2-4.5-.2-7.3-.3-10.7-.3-3.5 0-6.4.1-8.9.3-.7-.3-.9-1.7-.2-2.2l1.8-.3c3.6-.5 3.7-1.3 3.7-7.6V37.4z"/><path class="st4" d="M91.2 70.6H242"/><g><path class="st1" d="M95.8 81.3v9.1H94v-9.1h-2.7v-1.5h7.1v1.5h-2.6zM99.3 78.8h1.7v5.4c.6-.5 1.3-.7 2-.7.8 0 1.5.2 2 .7.4.4.6 1.1.6 2v4.1h-1.7v-3.9c0-.5-.1-.9-.3-1.2-.2-.2-.5-.4-1-.4-.6 0-1 .2-1.2.5-.2.3-.4.9-.4 1.7v3.2h-1.7V78.8zM114.1 87.3h-5.2c0 .5.2 1 .6 1.3.3.3.8.5 1.3.5.4 0 .8-.1 1-.3.3-.2.6-.5.9-1l1.4.7c-.2.3-.5.6-.7.9-.2.2-.5.4-.8.6-.3.2-.6.3-.9.3-.3.1-.7.1-1.1.1-1.1 0-2-.3-2.6-1-.7-.6-1-1.5-1-2.6s.3-1.9 1-2.6c.6-.6 1.5-1 2.6-1s1.9.3 2.6.9c.6.6.9 1.5.9 2.6v.6zm-1.8-1.2c-.2-.8-.8-1.2-1.7-1.2-.2 0-.4 0-.6.1-.2.1-.3.1-.5.2-.1.1-.3.2-.4.4-.1.2-.2.3-.2.5h3.4zM122 86v4.3h-1.8V79.8h2c1 0 1.7.1 2.2.2.5.1.9.4 1.3.7.7.6 1 1.3 1 2.2 0 1-.4 1.7-1.1 2.3s-1.6.8-2.8.8h-.8zm0-1.4h.7c1.6 0 2.4-.6 2.4-1.7s-.8-1.6-2.5-1.6h-.6v3.3zM127.8 83.7h1.7v.6c.3-.3.6-.5.8-.6.2-.1.5-.2.9-.2s.9.1 1.4.4l-.8 1.4c-.3-.2-.6-.3-.9-.3-.9 0-1.4.6-1.4 1.9v3.5h-1.7v-6.7zM132.7 86.9c0-1 .4-1.8 1.1-2.5.8-.7 1.7-1 2.8-1 1.1 0 2 .3 2.8 1 .8.7 1.1 1.5 1.1 2.5s-.4 1.8-1.1 2.5c-.8.7-1.7 1-2.8 1-1.1 0-2-.3-2.8-1-.7-.6-1.1-1.4-1.1-2.5zm1.8.1c0 .7.2 1.2.6 1.6.4.4.9.6 1.6.6.7 0 1.2-.2 1.6-.6.4-.4.6-.9.6-1.6s-.2-1.2-.6-1.6c-.4-.4-.9-.6-1.6-.6-.6 0-1.2.2-1.6.6s-.6.9-.6 1.6zM149 90.2v.8c0 .2-.1.4-.1.6-.1.5-.4.9-.7 1.3-.7.7-1.6 1-2.7 1-1 0-1.8-.2-2.4-.7-.7-.5-1-1.2-1.1-2h1.7c.1.3.2.6.3.8.4.4.9.6 1.5.6 1.2 0 1.9-.7 1.9-2.1v-.9c-.7.6-1.4.9-2.3.9-1 0-1.8-.3-2.5-1-.6-.7-1-1.5-1-2.5s.3-1.8.9-2.5c.6-.7 1.5-1.1 2.5-1.1.9 0 1.7.3 2.3.9v-.8h1.7v6.7zm-1.6-3.2c0-.6-.2-1.2-.6-1.5-.4-.4-.9-.6-1.5-.6s-1.1.2-1.5.6c-.3.4-.5.9-.5 1.5s.2 1.1.5 1.5c.4.4.9.6 1.5.6s1.2-.2 1.5-.6c.4-.4.6-.9.6-1.5zM150.8 83.7h1.7v.6c.3-.3.6-.5.8-.6.2-.1.5-.2.9-.2s.9.1 1.4.4l-.8 1.4c-.3-.2-.6-.3-.9-.3-.9 0-1.4.6-1.4 1.9v3.5h-1.7v-6.7zM162.8 87.3h-5.2c0 .5.2 1 .6 1.3.3.3.8.5 1.3.5.4 0 .8-.1 1-.3.3-.2.6-.5.9-1l1.4.7c-.2.3-.5.6-.7.9-.2.2-.5.4-.8.6-.3.2-.6.3-.9.3-.3.1-.7.1-1.1.1-1.1 0-2-.3-2.6-1-.7-.6-1-1.5-1-2.6s.3-1.9 1-2.6c.6-.6 1.5-1 2.6-1s1.9.3 2.6.9c.6.6.9 1.5.9 2.6v.6zm-1.8-1.2c-.2-.8-.8-1.2-1.7-1.2-.2 0-.4 0-.6.1-.2.1-.3.1-.5.2-.1.1-.3.2-.4.4s-.2.3-.2.5h3.4zM168.5 84.8l-1.4.7c-.2-.4-.5-.6-.8-.6-.2 0-.3 0-.4.1-.1.1-.2.2-.2.4 0 .3.3.5 1 .8.9.4 1.5.7 1.8 1 .3.3.5.7.5 1.2 0 .6-.3 1.2-.8 1.6-.5.4-1.1.6-1.8.6-1.2 0-2.1-.5-2.6-1.6l1.4-.6c.2.3.4.5.5.6.2.2.5.3.7.3.6 0 .9-.2.9-.7 0-.3-.2-.5-.7-.8-.2-.1-.3-.2-.5-.2-.2-.1-.3-.1-.5-.2-.5-.2-.8-.4-1-.7-.3-.3-.4-.6-.4-1.1 0-.6.2-1.1.7-1.4.4-.4 1-.6 1.6-.6.8-.1 1.5.3 2 1.2zM174.4 84.8l-1.4.7c-.2-.4-.5-.6-.8-.6-.2 0-.3 0-.4.1-.1.1-.2.2-.2.4 0 .3.3.5 1 .8.9.4 1.5.7 1.8 1 .3.3.5.7.5 1.2 0 .6-.3 1.2-.8 1.6-.5.4-1.1.6-1.8.6-1.2 0-2.1-.5-2.6-1.6l1.4-.6c.2.3.4.5.5.6.2.2.5.3.7.3.6 0 .9-.2.9-.7 0-.3-.2-.5-.7-.8-.2-.1-.3-.2-.5-.2-.2-.1-.3-.1-.5-.2-.5-.2-.8-.4-1-.7-.3-.3-.4-.6-.4-1.1 0-.6.2-1.1.7-1.4.4-.4 1-.6 1.6-.6.8-.1 1.5.3 2 1.2zM175.7 80.9c0-.3.1-.5.3-.7s.5-.3.8-.3c.3 0 .6.1.8.3.2.2.3.4.3.7s-.1.5-.3.7c-.2.2-.5.3-.8.3s-.6-.1-.8-.3-.3-.4-.3-.7zm2 2.8v6.7H176v-6.7h1.7zM180.4 83.7l1.9 3.7 1.9-3.7h1.9l-3.8 7.1-3.8-7.1h1.9zM193.2 87.3H188c0 .5.2 1 .6 1.3.3.3.8.5 1.3.5.4 0 .8-.1 1-.3.3-.2.6-.5.9-1l1.4.7c-.2.3-.5.6-.7.9-.2.2-.5.4-.8.6-.3.2-.6.3-.9.3-.3.1-.7.1-1.1.1-1.1 0-2-.3-2.6-1-.7-.6-1-1.5-1-2.6s.3-1.9 1-2.6c.6-.6 1.5-1 2.6-1s1.9.3 2.6.9c.6.6.9 1.5.9 2.6v.6zm-1.7-1.2c-.2-.8-.8-1.2-1.7-1.2-.2 0-.4 0-.6.1-.2.1-.3.1-.5.2-.1.1-.3.2-.4.4s-.2.3-.2.5h3.4zM205.9 81.3l-1.4.8c-.3-.4-.5-.7-.8-.8-.3-.1-.6-.2-1-.2-.5 0-.9.1-1.2.4-.3.2-.5.6-.5.9 0 .5.4.9 1.3 1.2l1.2.4c.9.3 1.6.8 2.1 1.3.4.5.7 1.1.7 1.8 0 1-.4 1.8-1.1 2.4-.7.6-1.6 1-2.7 1-1 0-1.8-.3-2.5-.8-.6-.5-1.1-1.3-1.2-2.3l1.8-.4c.1.6.2 1 .4 1.3.4.5.9.7 1.6.7.5 0 1-.2 1.4-.5.4-.3.5-.8.5-1.3 0-.2 0-.4-.1-.6s-.2-.3-.3-.5c-.1-.1-.3-.3-.5-.4-.2-.1-.5-.2-.8-.4l-1.1-.4c-1.6-.6-2.4-1.5-2.4-2.7 0-.8.3-1.5 1-2s1.5-.8 2.5-.8c1.3.2 2.4.7 3.1 1.9zM213.4 83.9v2c-.4-.4-.7-.7-1-.9-.3-.2-.7-.2-1.1-.2-.6 0-1.2.2-1.6.6-.4.4-.6.9-.6 1.5s.2 1.1.6 1.5c.4.4.9.6 1.6.6.4 0 .8-.1 1.1-.2.3-.2.7-.5 1.1-.9v2c-.7.3-1.4.5-2.1.5-1.1 0-2.1-.3-2.8-1-.8-.7-1.1-1.5-1.1-2.5s.4-1.8 1.2-2.5c.8-.7 1.7-1 2.8-1 .5.1 1.2.2 1.9.5zM215 78.8h1.7v5.4c.6-.5 1.3-.7 2-.7.8 0 1.5.2 2 .7.4.4.6 1.1.6 2v4.1h-1.7v-3.9c0-.5-.1-.9-.3-1.2-.2-.2-.5-.4-1-.4-.6 0-1 .2-1.2.5-.2.3-.4.9-.4 1.7v3.2H215V78.8zM222.7 86.9c0-1 .4-1.8 1.1-2.5.8-.7 1.7-1 2.8-1 1.1 0 2 .3 2.8 1 .8.7 1.1 1.5 1.1 2.5s-.4 1.8-1.1 2.5c-.8.7-1.7 1-2.8 1-1.1 0-2-.3-2.8-1-.7-.6-1.1-1.4-1.1-2.5zm1.7.1c0 .7.2 1.2.6 1.6.4.4.9.6 1.6.6.7 0 1.2-.2 1.6-.6.4-.4.6-.9.6-1.6s-.2-1.2-.6-1.6c-.4-.4-.9-.6-1.6-.6-.6 0-1.2.2-1.6.6s-.6.9-.6 1.6zM231.6 86.9c0-1 .4-1.8 1.1-2.5.8-.7 1.7-1 2.8-1 1.1 0 2 .3 2.8 1 .8.7 1.1 1.5 1.1 2.5s-.4 1.8-1.1 2.5c-.8.7-1.7 1-2.8 1-1.1 0-2-.3-2.8-1-.7-.6-1.1-1.4-1.1-2.5zm1.7.1c0 .7.2 1.2.6 1.6.4.4.9.6 1.6.6.7 0 1.2-.2 1.6-.6.4-.4.6-.9.6-1.6s-.2-1.2-.6-1.6c-.4-.4-.9-.6-1.6-.6-.6 0-1.2.2-1.6.6s-.6.9-.6 1.6zM242.5 78.8v11.5h-1.7V78.8h1.7z"/></g></svg>